<?xml version="1.0" standalone="no"?>
<!DOCTYPE svg PUBLIC "-//W3C//DTD SVG 20010904//EN"
 "http://www.w3.org/TR/2001/REC-SVG-20010904/DTD/svg10.dtd">
<svg version="1.0" xmlns="http://www.w3.org/2000/svg"
 width="900.000000pt" height="900.000000pt" viewBox="0 0 900.000000 900.000000"
 preserveAspectRatio="xMidYMid meet">
<metadata>
Created by potrace 1.16, written by Peter Selinger 2001-2019
</metadata>
<g transform="translate(0.000000,900.000000) scale(0.100000,-0.100000)"
fill="#000000" stroke="none">
<path d="M0 4500 l0 -4500 4500 0 4500 0 0 4500 0 4500 -4500 0 -4500 0 0
-4500z m2935 3854 c181 -46 518 -164 635 -221 101 -50 125 -67 201 -142 92
-93 120 -139 127 -214 7 -69 -15 -132 -70 -203 l-48 -63 42 18 c24 10 95 46
158 80 244 131 411 200 573 236 89 20 268 18 302 -3 18 -11 17 -11 -10 -5 -16
4 -75 7 -130 7 -191 -2 -415 -80 -654 -230 -156 -97 -154 -108 5 -29 464 229
772 292 911 187 35 -26 103 -129 103 -156 0 -20 16 -20 71 0 68 25 242 30 311
10 32 -9 60 -20 63 -25 3 -6 -8 -6 -27 0 -45 13 -173 10 -233 -6 -49 -12 -47
-12 42 -7 210 11 338 -53 416 -210 l36 -73 11 -266 c14 -358 2 -534 -44 -668
-43 -126 -143 -527 -133 -537 2 -2 14 33 26 79 57 200 97 329 133 420 21 54
43 126 49 160 17 100 23 437 10 637 -11 175 -13 188 -43 250 -37 76 -114 158
-176 186 -37 17 -42 23 -40 49 2 23 15 38 58 68 105 73 201 83 304 32 28 -14
42 -22 31 -18 -11 4 -53 9 -92 11 -61 3 -81 0 -125 -21 -29 -14 -62 -32 -73
-41 -11 -9 9 -1 44 17 91 45 169 45 261 -1 130 -65 246 -178 272 -265 9 -30
13 -122 12 -322 0 -295 -16 -488 -55 -698 -19 -102 -23 -111 -69 -169 -52 -65
-100 -153 -100 -184 0 -28 -73 -135 -124 -182 -60 -55 -118 -83 -187 -89 -76
-7 -160 13 -167 40 -4 16 -8 11 -18 -24 -18 -59 -18 -59 18 -59 17 0 65 -16
107 -36 207 -102 425 -100 698 6 46 17 102 47 125 67 24 20 111 86 193 148 83
61 197 151 254 199 148 124 239 167 398 186 100 13 235 1 330 -29 102 -33 298
-137 298 -159 0 -6 7 -17 15 -24 12 -11 12 -11 1 5 -7 9 -9 17 -5 17 17 0 85
-51 79 -59 -2 -5 3 -8 13 -7 9 0 16 -5 15 -11 -2 -7 0 -12 5 -11 15 3 42 -15
42 -29 0 -8 4 -12 9 -9 17 11 79 -74 91 -125 18 -73 5 -123 -44 -174 -59 -62
-116 -78 -289 -80 l-139 -2 -121 -86 c-153 -107 -264 -173 -308 -182 -57 -12
-85 -32 -187 -128 -53 -50 -118 -103 -143 -116 -30 -16 -53 -38 -71 -70 -47
-83 -257 -341 -276 -341 -15 0 -132 -123 -177 -185 -74 -104 -144 -243 -166
-330 -95 -375 -247 -711 -436 -963 -78 -103 -212 -243 -303 -315 -41 -33 -78
-65 -82 -72 -8 -12 -175 -127 -233 -159 -21 -12 -24 -16 -9 -13 17 4 8 -12
-40 -72 -137 -170 -247 -390 -354 -706 -52 -157 -82 -260 -142 -495 -58 -229
-58 -229 -83 -234 -12 -3 -159 -9 -327 -15 -168 -6 -404 -15 -525 -21 -121 -5
-389 -16 -595 -25 -206 -9 -523 -22 -705 -30 -181 -8 -364 -15 -405 -15 -42 0
-80 -4 -86 -10 -5 -5 -83 -13 -174 -17 -158 -6 -163 -6 -155 13 49 119 192
616 284 992 39 157 49 200 93 412 33 162 66 369 79 506 15 152 13 166 -58 394
-79 254 -116 401 -138 543 -15 95 -16 180 -12 680 4 428 9 619 22 757 9 102
18 302 20 445 5 458 44 689 185 1100 40 117 57 186 76 310 33 224 63 395 85
500 11 50 22 104 26 120 17 93 77 282 108 345 20 39 174 189 242 234 75 51
149 56 288 20z"/>
<path d="M2711 8318 c-77 -42 -235 -180 -266 -233 -62 -107 -134 -382 -199
-760 -30 -173 -46 -283 -46 -309 0 -15 -27 -106 -60 -203 -145 -426 -195 -710
-188 -1083 1 -113 -6 -289 -21 -495 -20 -282 -22 -369 -18 -730 5 -424 14
-550 57 -763 21 -107 38 -166 39 -140 1 9 -3 28 -8 41 -5 14 -20 91 -33 173
-22 141 -23 175 -23 649 0 498 4 573 46 1055 6 68 8 167 5 220 -12 166 19 454
74 680 27 113 46 178 110 375 44 138 62 210 75 310 39 300 111 662 167 835 31
95 63 155 105 193 21 19 66 59 100 90 34 31 81 66 105 78 88 45 214 25 585
-96 75 -25 138 -43 140 -41 4 4 -175 69 -322 116 -261 83 -327 89 -424 38z"/>
<path d="M3480 8150 c8 -5 20 -10 25 -10 6 0 3 5 -5 10 -8 5 -19 10 -25 10 -5
0 -3 -5 5 -10z"/>
<path d="M2586 7980 c12 -64 70 -174 121 -230 51 -56 122 -101 178 -114 26 -7
25 -4 -17 24 -26 17 -71 57 -100 89 -50 54 -78 92 -157 216 -32 50 -32 50 -25
15z"/>
<path d="M3082 7908 c-117 -183 -193 -347 -239 -515 -24 -84 -28 -117 -28
-233 0 -117 3 -143 23 -194 55 -142 160 -237 318 -285 81 -25 118 -26 49 -2
-88 32 -152 69 -212 125 -209 194 -183 527 83 1059 30 59 52 107 50 107 -2 0
-22 -28 -44 -62z"/>
<path d="M3776 7465 c-124 -141 -194 -260 -251 -430 -31 -92 -56 -236 -54
-310 1 -29 1 -30 9 -5 4 14 18 68 30 120 45 195 154 428 304 653 28 42 16 33
-38 -28z"/>
<path d="M5142 7465 c0 -16 2 -22 5 -12 2 9 2 23 0 30 -3 6 -5 -1 -5 -18z"/>
<path d="M5155 7377 c31 -319 31 -684 0 -897 -20 -137 -66 -335 -101 -428 -41
-110 -113 -245 -147 -275 -39 -35 -104 -69 -177 -92 -43 -14 -99 -19 -250 -21
-287 -5 -511 -34 -654 -86 -57 -21 -59 -21 -92 -3 -54 29 -121 107 -134 156
-21 79 11 174 86 256 111 118 274 261 334 291 35 18 58 32 51 32 -6 0 -38 -13
-70 -29 -67 -35 -329 -264 -375 -329 -69 -98 -82 -182 -42 -267 24 -52 103
-132 157 -159 27 -13 34 -13 74 5 114 50 416 89 670 86 176 -2 237 9 350 63
100 48 132 81 188 195 132 265 196 625 183 1020 -5 177 -26 397 -46 485 l-9
45 4 -48z"/>
<path d="M4218 7252 c-33 -86 -63 -187 -83 -281 -28 -134 -114 -264 -208 -313
-34 -18 -58 -22 -127 -22 -50 1 -102 7 -125 16 -22 8 -49 19 -60 22 l-20 8 20
-17 c11 -10 45 -29 75 -43 78 -37 194 -38 263 -2 51 25 110 83 129 126 6 13
14 24 17 24 3 0 7 -49 7 -109 3 -209 75 -360 204 -426 70 -35 101 -40 44 -6
-61 35 -124 104 -153 167 -74 156 -67 431 20 793 16 68 28 125 26 127 -2 2
-15 -27 -29 -64z"/>
<path d="M3267 7199 c-113 -26 -174 -107 -203 -273 -15 -84 -12 -95 28 -96 10
0 65 -19 122 -41 114 -45 149 -46 195 -8 25 20 62 142 75 244 l6 50 -16 -40
c-9 -22 -30 -76 -47 -120 -31 -83 -56 -115 -89 -115 -10 0 -58 13 -106 29 -48
16 -100 32 -116 36 -28 6 -28 7 -22 54 17 130 64 214 141 251 40 19 58 22 123
18 42 -3 68 -2 57 2 -37 13 -110 18 -148 9z"/>
<path d="M4108 6313 c7 -3 16 -2 19 1 4 3 -2 6 -13 5 -11 0 -14 -3 -6 -6z"/>
<path d="M7407 6253 c18 -2 50 -2 70 0 21 2 7 4 -32 4 -38 0 -55 -2 -38 -4z"/>
<path d="M7270 6241 c-17 -5 -21 -9 -12 -15 7 -4 9 -12 6 -18 -4 -7 -2 -8 5
-4 6 4 9 12 6 17 -4 5 1 9 9 9 8 0 18 5 21 10 7 11 2 11 -35 1z"/>
<path d="M7325 6240 c-3 -5 -2 -10 4 -10 5 0 13 5 16 10 3 6 2 10 -4 10 -5 0
-13 -4 -16 -10z"/>
<path d="M7553 6243 c9 -2 23 -2 30 0 6 3 -1 5 -18 5 -16 0 -22 -2 -12 -5z"/>
<path d="M7380 6229 c-20 -4 15 -7 79 -8 63 0 112 1 109 4 -7 8 -150 11 -188
4z"/>
<path d="M7610 6224 c-21 -12 -22 -14 -5 -12 11 1 25 0 30 -4 6 -4 11 2 12 13
2 22 -3 22 -37 3z"/>
<path d="M7227 6215 c-6 -15 10 -32 20 -21 4 3 1 6 -5 6 -6 0 -9 7 -6 15 4 8
4 15 1 15 -3 0 -7 -7 -10 -15z"/>
<path d="M7720 6206 c0 -2 7 -7 16 -10 8 -3 12 -2 9 4 -6 10 -25 14 -25 6z"/>
<path d="M7130 6190 c-9 -6 -10 -10 -3 -10 6 0 15 5 18 10 8 12 4 12 -15 0z"/>
<path d="M7084 6164 c-18 -14 -18 -15 4 -4 12 6 22 13 22 15 0 8 -5 6 -26 -11z"/>
<path d="M7045 6139 c-4 -6 -4 -13 -1 -16 3 -3 0 -13 -6 -22 -10 -13 -10 -14
2 -4 7 7 14 22 15 33 2 23 -1 25 -10 9z"/>
<path d="M7086 6135 c-11 -8 -15 -15 -9 -15 6 0 16 7 23 15 16 19 11 19 -14 0z"/>
<path d="M7847 6129 c7 -7 15 -10 18 -7 3 3 -2 9 -12 12 -14 6 -15 5 -6 -5z"/>
<path d="M6994 6099 c-15 -17 -16 -22 -4 -29 16 -10 30 -4 29 13 0 9 -2 8 -6
-1 -2 -6 -9 -9 -15 -6 -5 3 -2 14 8 25 9 10 15 19 12 19 -3 0 -13 -9 -24 -21z"/>
<path d="M6949 6063 c-13 -16 -12 -17 4 -4 9 7 17 15 17 17 0 8 -8 3 -21 -13z"/>
<path d="M6874 5964 l-39 -36 45 33 c25 18 47 34 49 36 2 2 0 3 -6 3 -5 0 -27
-16 -49 -36z"/>
<path d="M2495 5985 c-5 -2 -36 -11 -69 -20 -77 -21 -68 -27 14 -10 86 19 202
19 291 0 345 -73 635 -405 869 -995 100 -254 104 -244 14 30 -152 460 -391
790 -675 932 -103 52 -180 68 -314 67 -66 0 -124 -2 -130 -4z"/>
<path d="M6820 5957 c-9 -7 -14 -19 -12 -28 1 -9 -4 -19 -14 -23 -12 -5 -15
-2 -10 11 6 15 5 16 -5 6 -10 -10 -10 -16 -1 -25 9 -9 16 -7 32 7 11 10 17 22
13 27 -3 6 1 14 8 19 7 4 11 10 9 13 -3 2 -12 -1 -20 -7z"/>
<path d="M6683 5853 c-10 -10 -13 -14 -6 -10 6 5 16 6 21 3 5 -3 9 1 9 9 0 19
-1 19 -24 -2z"/>
<path d="M3784 5826 c-17 -8 -39 -24 -48 -37 -19 -27 -21 -96 -4 -136 11 -27
12 -25 18 36 12 105 47 118 234 85 48 -8 90 -13 93 -11 11 11 -199 77 -242 77
-11 -1 -34 -7 -51 -14z"/>
<path d="M6631 5817 c-8 -10 -7 -14 2 -14 8 0 14 6 14 14 0 7 -1 13 -2 13 -2
0 -8 -6 -14 -13z"/>
<path d="M6585 5781 c-6 -11 13 -26 22 -17 4 3 1 6 -6 6 -7 0 -9 5 -6 10 3 6
4 10 1 10 -3 0 -7 -4 -11 -9z"/>
<path d="M6620 5779 c0 -5 5 -7 10 -4 6 3 10 8 10 11 0 2 -4 4 -10 4 -5 0 -10
-5 -10 -11z"/>
<path d="M6545 5750 c-3 -5 -3 -14 0 -20 3 -5 1 -10 -4 -10 -6 0 -11 -5 -11
-12 0 -21 23 9 25 32 2 22 -1 25 -10 10z"/>
<path d="M6573 5745 c0 -8 4 -12 9 -9 5 3 6 10 3 15 -9 13 -12 11 -12 -6z"/>
<path d="M6453 5667 c1 -7 -9 -12 -25 -12 -15 0 -27 -4 -25 -10 3 -13 34 -8
58 9 17 11 18 14 5 19 -9 4 -15 1 -13 -6z"/>
<path d="M5521 5614 c-30 -82 -147 -155 -281 -174 -43 -7 -177 -10 -315 -9
-206 2 -261 0 -383 -19 -155 -24 -297 -28 -335 -11 -28 13 -45 40 -57 90 -8
32 -8 32 -9 6 -1 -41 23 -93 54 -113 37 -24 191 -30 340 -13 76 9 193 13 321
11 322 -6 471 20 581 102 49 35 64 54 83 100 12 31 21 59 18 61 -2 3 -10 -11
-17 -31z"/>
<path d="M6318 5622 c-10 -2 -18 -8 -18 -13 0 -6 -4 -8 -9 -4 -5 3 -12 1 -15
-4 -3 -5 -16 -7 -29 -4 -17 4 -19 3 -7 -6 12 -8 9 -10 -15 -10 -16 0 -68 -4
-115 -10 -47 -6 -105 -12 -130 -14 -26 -2 -11 -4 35 -5 89 -2 242 20 277 40
13 7 29 11 35 10 7 -2 25 4 40 12 l27 14 -29 -1 c-17 -1 -38 -3 -47 -5z"/>
<path d="M4313 5573 c-57 -11 -95 -92 -58 -123 13 -10 15 -9 15 12 0 13 12 35
26 49 24 23 33 24 137 23 62 0 126 -4 142 -7 68 -16 -5 12 -84 32 -80 20 -128
24 -178 14z"/>
<path d="M5888 5563 c6 -2 18 -2 25 0 6 3 1 5 -13 5 -14 0 -19 -2 -12 -5z"/>
<path d="M4446 4801 c-31 -59 -74 -179 -92 -256 -28 -120 -26 -396 4 -518 96
-385 351 -727 757 -1012 29 -20 25 -15 -15 21 -104 91 -292 279 -354 354 -128
154 -205 278 -277 448 -69 162 -90 262 -96 462 -4 153 -2 188 17 280 12 57 34
137 50 177 29 76 31 94 6 44z"/>
<path d="M1931 3834 c0 -11 3 -14 6 -6 3 7 2 16 -1 19 -3 4 -6 -2 -5 -13z"/>
<path d="M1941 3764 c0 -11 3 -14 6 -6 3 7 2 16 -1 19 -3 4 -6 -2 -5 -13z"/>
<path d="M1951 3714 c0 -11 3 -14 6 -6 3 7 2 16 -1 19 -3 4 -6 -2 -5 -13z"/>
<path d="M1966 3650 c4 -25 10 -54 15 -65 10 -24 0 48 -12 85 -6 16 -7 10 -3
-20z"/>
<path d="M1996 3530 c4 -19 28 -107 54 -195 72 -242 80 -277 80 -338 0 -54
-29 -278 -50 -382 -76 -384 -194 -881 -320 -1349 -27 -103 -50 -193 -49 -199
1 -16 49 123 104 298 204 654 326 1235 329 1575 l1 145 -68 215 c-83 261 -89
278 -81 230z"/>
<path d="M3834 3115 c12 -57 97 -215 155 -288 73 -92 179 -176 285 -227 113
-54 183 -71 316 -75 63 -2 99 -1 80 1 -172 21 -347 84 -470 167 -60 41 -173
149 -225 217 -23 30 -66 96 -95 145 -33 57 -50 79 -46 60z"/>
<path d="M3714 3083 c-32 -68 -133 -157 -236 -207 -174 -84 -335 -111 -665
-111 -127 0 -230 -1 -229 -3 12 -12 251 -34 371 -35 387 -1 651 113 760 329
15 30 25 57 22 60 -3 3 -13 -12 -23 -33z"/>
<path d="M3566 2424 c72 -146 85 -208 92 -439 5 -194 5 -199 19 -150 23 81 29
307 9 385 -22 87 -77 197 -125 251 l-40 44 45 -91z"/>
<path d="M3871 2236 c-114 -200 -175 -450 -144 -597 6 -28 10 -12 24 86 20
134 54 258 123 449 26 71 45 130 43 132 -2 2 -22 -29 -46 -70z"/>
</g>
</svg>
