<svg width="93" height="106" viewBox="0 0 93 106" fill="none" xmlns="http://www.w3.org/2000/svg">
<path fill-rule="evenodd" clip-rule="evenodd" d="M27.3767 4.23433C25.7257 3.43 20.9702 1.76489 18.4161 1.11578C16.4547 0.60778 15.4104 0.678335 14.3521 1.398C13.3926 2.033 11.2194 4.14967 10.9372 4.7C10.4998 5.589 9.65311 8.256 9.41322 9.56833C9.38172 9.69433 9.31946 9.98731 9.24361 10.3443L9.24349 10.3448L9.24346 10.345C9.18342 10.6275 9.11488 10.9501 9.04633 11.2617C8.73589 12.7433 8.31255 15.1563 7.84689 18.3172C7.57878 20.067 7.33889 21.0407 6.77444 22.6917C4.78477 28.4913 4.23444 31.751 4.16389 38.2139C4.13566 40.2318 4.00867 43.054 3.88166 44.4933C3.69822 46.4407 3.62766 49.1359 3.57122 55.1754C3.51478 62.231 3.52889 63.4304 3.74055 64.771C4.051 66.7748 4.57311 68.8491 5.68789 72.4333C6.68978 75.6507 6.718 75.8482 6.50633 77.9931C6.32289 79.9263 5.85722 82.8473 5.39155 85.1333C4.77066 88.1249 4.62955 88.7317 4.07922 90.9471C2.781 96.2529 0.763109 103.266 0.0716648 104.945C-0.0412235 105.213 0.0293312 105.213 2.25889 105.129C3.543 105.072 4.64367 104.959 4.71422 104.889C4.79889 104.804 5.33511 104.748 5.92778 104.748C6.50633 104.748 9.08867 104.649 11.6428 104.536C12.936 104.479 14.7122 104.405 16.5283 104.328L16.5534 104.327C18.3359 104.252 20.1547 104.176 21.5911 104.113C24.1823 104 27.4686 103.864 29.3613 103.786L29.3726 103.785L29.3783 103.785L29.9872 103.76C31.6947 103.675 35.0249 103.548 37.3956 103.464C39.7662 103.379 41.8406 103.294 42.0099 103.252L42.01 103.252L42.0101 103.252L42.0102 103.252C42.0617 103.242 42.1057 103.233 42.1458 103.215C42.3802 103.112 42.4825 102.708 43.1811 99.95C44.0278 96.6339 44.4511 95.1804 45.1849 92.965C46.6948 88.5059 48.247 85.4014 50.1802 83.0026C50.8576 82.1559 50.9846 81.9301 50.7447 81.9866C50.533 82.0289 50.5753 81.9724 50.8717 81.8031C51.6901 81.3516 54.0467 79.7288 54.1596 79.5594C54.216 79.4607 54.7381 79.0091 55.3167 78.5434C56.6008 77.5274 58.4917 75.5519 59.5923 74.0984C62.2593 70.5424 64.4042 65.8011 65.7448 60.5094C66.0552 59.2818 67.043 57.3203 68.0872 55.8528C68.7222 54.9779 70.3732 53.2422 70.5849 53.2422C70.853 53.2422 73.8163 49.6016 74.4796 48.4303C74.7336 47.9788 75.0581 47.6683 75.4814 47.4426C75.8342 47.2591 76.7514 46.5112 77.4993 45.8057C78.9387 44.451 79.3338 44.1688 80.1381 43.9994C80.759 43.8724 82.3253 42.9411 84.4843 41.4312L86.1918 40.2177L88.1532 40.1894C90.5944 40.1612 91.3988 39.9354 92.2313 39.0606C92.9228 38.3409 93.1062 37.6353 92.8522 36.6052C92.6829 35.8856 91.808 34.6861 91.5681 34.8413C91.4976 34.8837 91.4411 34.8272 91.4411 34.7143C91.4411 34.5168 91.0601 34.2628 90.8484 34.3051C90.7779 34.3192 90.7497 34.2487 90.7779 34.1499C90.792 34.0652 90.6932 33.9947 90.5662 33.9947C90.4251 34.0088 90.3546 33.9664 90.3828 33.8959C90.4674 33.783 89.5079 33.0633 89.268 33.0633C89.2116 33.0633 89.2398 33.1762 89.3386 33.3032C89.4196 33.4211 89.4583 33.4774 89.4527 33.4823C89.4476 33.4867 89.4055 33.4481 89.3249 33.3742L89.3245 33.3738L89.3244 33.3738C89.2116 33.275 89.1128 33.1198 89.1128 33.0351C89.1128 32.7247 86.347 31.2571 84.9077 30.7914C83.5671 30.3681 81.6621 30.1988 80.251 30.3822C78.0073 30.6503 76.7232 31.2571 74.6348 33.0069C73.8304 33.6842 72.2218 34.9542 71.0506 35.815C69.8934 36.6899 68.6658 37.6212 68.3271 37.9034C68.0026 38.1857 67.2123 38.609 66.5632 38.8489C62.7109 40.3447 59.6347 40.3729 56.7137 38.9336C56.121 38.6513 55.4437 38.4256 55.2038 38.4256C54.9909 38.4256 54.8673 38.4256 54.8141 38.3643C54.7404 38.2794 54.8022 38.0768 54.9498 37.593C55.0909 37.0991 55.1473 37.0286 55.2038 37.2543C55.3026 37.6353 56.4879 37.9176 57.5603 37.8188C58.534 37.7341 59.3524 37.339 60.1991 36.5629C60.9188 35.8997 61.9489 34.3898 61.9489 33.9947C61.9489 33.5572 62.6262 32.3154 63.36 31.3982C64.0091 30.5798 64.0656 30.4528 64.3337 29.0134C64.884 26.0501 65.1098 23.3267 65.1098 19.1639C65.1239 16.3417 65.0674 15.0434 64.9404 14.6201C64.5736 13.3924 62.9367 11.7979 61.1022 10.8807C59.804 10.2316 58.7033 10.2316 57.4192 10.8666C56.9253 11.1206 56.6431 11.2334 56.7983 11.1064C56.9536 10.9794 57.4192 10.7254 57.8284 10.5279C58.4493 10.2316 58.7316 10.1892 59.5923 10.2316C60.1427 10.2598 60.7353 10.3303 60.8906 10.3868C61.0458 10.4432 60.8482 10.3303 60.4531 10.1328C58.9997 9.41311 57.645 9.55422 56.1633 10.5843C55.5565 11.0077 55.3731 11.2193 55.3449 11.5439C55.3167 11.9108 55.3872 11.9954 55.9093 12.2353C56.7842 12.6304 57.8708 13.7876 58.3929 14.86C58.8162 15.7349 58.8444 15.9183 58.9997 18.3878C59.1831 21.21 59.0984 25.9654 58.8586 27.3766C58.7739 27.8563 58.4634 28.8723 58.1671 29.6343C57.6591 30.9184 57.0947 32.7388 56.2903 35.561C56.121 36.2101 55.9517 36.704 55.9234 36.6758C55.7823 36.5347 57.1934 30.8761 57.8002 29.0981C58.4493 27.2072 58.6187 24.7237 58.4211 19.6719L58.2659 15.9183L57.7579 14.8882C56.6572 12.6728 54.851 11.7697 51.8877 11.9249C50.6318 11.9954 50.6036 11.9954 51.295 11.8261C52.1417 11.6003 53.9479 11.558 54.5829 11.7414C54.851 11.8261 55.0062 11.8261 54.9639 11.7414C54.9216 11.6709 54.5264 11.5157 54.0749 11.3887C53.1012 11.1064 50.6459 11.177 49.6863 11.5298C48.9102 11.812 48.6844 11.812 48.6844 11.5298C48.6844 11.1488 47.7249 9.69534 47.231 9.32845C45.2696 7.84678 40.9233 8.73578 34.3758 11.9672C32.1321 13.082 32.1039 12.9268 34.3052 11.558C37.6778 9.44133 40.8387 8.34067 43.5339 8.31245C44.31 8.31245 45.1426 8.35478 45.3683 8.41122C45.7493 8.49589 45.7634 8.49589 45.5094 8.34067C45.0297 8.04433 42.5038 8.01611 41.2479 8.29833C38.9619 8.80634 36.6053 9.78 33.1622 11.6286C32.2732 12.1083 31.2713 12.6163 30.9327 12.7574L30.34 13.0114L31.0173 12.1224C31.7934 11.1206 32.1039 10.2316 32.0051 9.25789C31.9063 8.19956 31.5112 7.55045 30.213 6.23811C29.1406 5.17978 28.8019 4.93989 27.3767 4.23433ZM15.2552 1.62378C14.1687 2.21645 11.9391 4.16378 11.5017 4.91167C10.6268 6.42156 9.61078 10.3021 8.69356 15.6361C8.27022 18.0773 8.04445 19.6296 8.04445 19.9964C8.04445 20.2081 7.66344 21.4922 7.19778 22.861C5.15167 28.8723 4.44611 32.8799 4.54489 38.1433C4.559 39.7379 4.46022 42.2214 4.24856 45.1283C3.96633 49.1077 3.93811 50.3353 3.99456 55.4294C4.06511 61.4126 4.19211 63.1906 4.79889 66.1962C5.09522 67.7061 5.33511 68.5387 5.34922 68.1718C5.36333 68.0448 5.30689 67.7767 5.23633 67.5932C5.16578 67.3957 4.95411 66.3091 4.77067 65.152C4.46022 63.1623 4.44611 62.6826 4.44611 55.9939C4.44611 48.9666 4.50256 47.9082 5.09522 41.1067C5.17989 40.1471 5.20811 38.7501 5.16578 38.0022C4.99644 35.6598 5.43389 31.5958 6.21 28.4067C6.591 26.8121 6.85911 25.8949 7.76222 23.115C8.38311 21.1677 8.63711 20.1517 8.82056 18.7406C9.37089 14.5072 10.3869 9.399 11.1771 6.95778C11.6146 5.61723 12.0661 4.77056 12.6588 4.23434C12.7684 4.13516 12.9244 3.99542 13.1017 3.83657C13.4037 3.566 13.7676 3.23996 14.0699 2.96434C14.5497 2.52689 15.2129 2.033 15.5516 1.86367C16.7933 1.22867 18.5713 1.51089 23.8066 3.21834C24.8649 3.57112 25.7539 3.82512 25.7821 3.79689C25.8386 3.74045 23.3127 2.82323 21.2383 2.16C17.5553 0.988782 16.624 0.904116 15.2552 1.62378ZM26.4594 4.13555C26.3889 4.13555 26.2196 4.065 26.1067 3.99444C25.9938 3.92388 25.9656 3.85333 26.0361 3.85333C26.1208 3.85333 26.276 3.92388 26.3889 3.99444C26.5018 4.065 26.5441 4.13555 26.4594 4.13555ZM13.4913 6.39333C13.6607 7.29644 14.4791 8.84866 15.1988 9.63888C15.9184 10.4291 16.9203 11.0641 17.7106 11.2475C18.0774 11.3463 18.0633 11.304 17.4707 10.9089C17.1038 10.669 16.4688 10.1045 16.0596 9.65299C15.354 8.891 14.9589 8.35477 13.8441 6.60499L13.8441 6.60494C13.5893 6.20681 13.4783 6.03336 13.4476 6.04655C13.424 6.05673 13.4483 6.17816 13.4913 6.39333ZM17.1179 14.6766C17.767 12.3059 18.8394 9.99167 20.4904 7.40933C20.8009 6.92956 21.0831 6.53444 21.1113 6.53444C21.1395 6.53444 20.8291 7.21178 20.4058 8.04433C16.6522 15.5514 16.2853 20.2504 19.2346 22.988C20.0812 23.7782 20.9843 24.3003 22.2261 24.7519C23.1998 25.0906 22.6777 25.0764 21.5347 24.7237C19.3051 24.0463 17.8234 22.7058 17.0473 20.702C16.7651 19.9823 16.7228 19.6154 16.7228 17.9644C16.7228 16.3276 16.7792 15.8619 17.1179 14.6766ZM30.2836 13.6606C28.5338 15.6502 27.546 17.3294 26.7417 19.7283C26.3042 21.0266 25.9514 23.0586 25.9797 24.1028L25.9798 24.1075C25.9938 24.5121 25.9942 24.5247 26.1067 24.1733C26.1631 23.9758 26.3607 23.2138 26.53 22.48C27.165 19.7283 28.7031 16.4404 30.8198 13.2654C31.2149 12.6728 31.0456 12.7998 30.2836 13.6606ZM49.6299 13.8299C49.5876 13.971 49.5593 13.8863 49.5593 13.6605C49.5593 13.4207 49.5876 13.3219 49.6299 13.4065C49.6581 13.5053 49.6581 13.7029 49.6299 13.8299ZM49.7428 14.9023C50.1802 19.4038 50.1802 24.5543 49.7428 27.56C49.4606 29.4932 48.8114 32.2872 48.3176 33.5996C47.739 35.1518 46.723 37.0568 46.2432 37.4801C45.6929 37.974 44.7757 38.4538 43.7456 38.7783C43.1388 38.9759 42.3486 39.0464 40.2178 39.0747C36.1679 39.1452 33.007 39.5544 30.9891 40.2882C30.1848 40.5846 30.1566 40.5846 29.6909 40.3306C28.9289 39.9213 27.9834 38.8207 27.8 38.1292C27.5037 37.0145 27.9552 35.6739 29.0136 34.5168C30.5799 32.8517 32.88 30.8338 33.7267 30.4104C34.2206 30.1564 34.5451 29.9589 34.4463 29.9589C34.3617 29.9589 33.9101 30.1423 33.4586 30.3681C32.5131 30.862 28.816 34.0934 28.1669 35.0107C27.1932 36.3936 27.0098 37.5789 27.5742 38.7783C27.9129 39.5121 29.0277 40.641 29.7897 41.022C30.1707 41.2054 30.2694 41.2054 30.8339 40.9515C32.4426 40.2459 36.7041 39.6956 40.2883 39.7379C42.7719 39.7661 43.6327 39.6109 45.2272 38.8489C46.6383 38.1716 47.0899 37.7059 47.8801 36.0972C49.7428 32.3578 50.6459 27.2778 50.4624 21.7039C50.3919 19.2062 50.0956 16.1018 49.8133 14.86L49.6863 14.225L49.7428 14.9023ZM35.3494 20.6315C35.6317 19.305 36.055 17.8798 36.5207 16.6662C36.7182 16.1441 36.9017 15.7349 36.9299 15.7631C36.9581 15.7913 36.7888 16.5957 36.563 17.5552C35.3353 22.6635 35.2366 26.544 36.2808 28.7453C36.69 29.6343 37.579 30.608 38.4398 31.1019C39.2441 31.5817 38.8067 31.5111 37.8189 31.0172C35.9986 30.0859 34.9826 27.9551 34.9402 25.0059C34.9402 24.1592 34.8838 23.4678 34.8414 23.4678C34.7991 23.4678 34.6862 23.623 34.6016 23.8065C34.3334 24.4132 33.5009 25.2317 32.7812 25.5845C31.8076 26.0925 30.1707 26.0783 29.07 25.5562C28.6467 25.3587 28.1669 25.0906 28.0117 24.9495L27.7294 24.7096L28.0117 24.8225C28.1101 24.8493 28.2991 24.9215 28.5035 24.9995L28.5038 24.9996C28.6218 25.0446 28.7448 25.0916 28.8583 25.1329C29.1829 25.2599 29.9167 25.3446 30.6222 25.3587C31.5959 25.3587 31.9346 25.3022 32.4143 25.0482C33.7408 24.3568 34.9543 22.5223 35.3494 20.6315ZM23.101 17.4141C21.5064 17.781 20.6457 18.924 20.2364 21.2665C20.0248 22.4518 20.0671 22.607 20.6316 22.6211C20.7727 22.6211 21.5488 22.8892 22.3531 23.1997C23.9618 23.8347 24.4557 23.8488 25.1048 23.3126C25.4576 23.0303 25.9797 21.3088 26.1631 19.8695L26.2478 19.1639L26.022 19.7283C25.895 20.0388 25.5987 20.8008 25.3588 21.4217C24.9213 22.5929 24.5686 23.0445 24.1029 23.0445C23.9618 23.0445 23.2844 22.861 22.6071 22.6352C21.9298 22.4095 21.196 22.1837 20.9702 22.1272C20.5751 22.0426 20.5751 22.0285 20.6598 21.3652C20.8997 19.5308 21.5629 18.3455 22.6494 17.8233C23.2139 17.5552 23.4679 17.5129 24.3851 17.5693C24.9778 17.6117 25.3447 17.5976 25.1894 17.5411C24.6673 17.3577 23.6372 17.2871 23.101 17.4141ZM35.2365 29.9024C35.1942 29.9448 35.0672 29.9589 34.9684 29.9166C34.8555 29.8742 34.8979 29.8319 35.0531 29.8319C35.2083 29.8178 35.293 29.8601 35.2365 29.9024ZM81.521 30.7632C81.775 30.7914 82.2266 30.7914 82.5088 30.7632C82.8051 30.735 82.6076 30.7068 82.0572 30.7068C81.521 30.7068 81.2811 30.735 81.521 30.7632ZM79.4184 31.1442C79.2914 31.0596 79.3479 31.0031 79.5878 30.9326C80.1099 30.7914 80.1804 30.7914 80.0817 30.9467C80.0393 31.0172 79.8982 31.0878 79.7853 31.0878C79.6724 31.0878 79.6019 31.1442 79.6583 31.2148C79.7007 31.2853 79.6583 31.3982 79.5737 31.4547C79.4749 31.5111 79.4467 31.497 79.5031 31.3982C79.5454 31.3136 79.5172 31.2007 79.4184 31.1442ZM80.3639 30.9467C80.3216 31.0172 80.3357 31.0878 80.4203 31.0878C80.4909 31.0878 80.6038 31.0172 80.6461 30.9467C80.6884 30.862 80.6743 30.8055 80.5897 30.8055C80.5191 30.8055 80.4062 30.862 80.3639 30.9467ZM84.0046 30.9043C83.9058 30.9326 83.7082 30.9326 83.5812 30.9043C83.4401 30.862 83.5248 30.8338 83.7506 30.8338C83.9905 30.8338 84.0892 30.862 84.0046 30.9043ZM81.14 31.1019C80.8578 31.1583 81.3517 31.2007 82.2548 31.2148C83.1438 31.2148 83.8352 31.2007 83.7929 31.1583C83.6941 31.0454 81.6762 31.0031 81.14 31.1019ZM84.315 31.3418C84.0751 31.37 84.0892 31.3418 84.3856 31.1724C84.8653 30.9043 84.9359 30.9043 84.9077 31.2148C84.8936 31.37 84.823 31.4547 84.7383 31.3982C84.6678 31.3418 84.4702 31.3277 84.315 31.3418ZM78.981 31.2995C78.8963 31.5111 79.1221 31.751 79.2632 31.5958C79.3197 31.5535 79.2773 31.5111 79.1927 31.5111C79.108 31.5111 79.0657 31.4123 79.108 31.2995C79.1644 31.1866 79.1644 31.0878 79.1221 31.0878C79.0798 31.0878 79.0233 31.1866 78.981 31.2995ZM86.1636 31.5676C86.0366 31.5252 85.9378 31.4547 85.9378 31.4264C85.9378 31.3136 86.2059 31.37 86.2906 31.5111C86.3329 31.5958 86.2765 31.6099 86.1636 31.5676ZM77.6122 31.6522C77.4852 31.7369 77.4711 31.7933 77.5699 31.7933C77.6546 31.7933 77.7816 31.7228 77.8239 31.6522C77.9368 31.4829 77.8803 31.4829 77.6122 31.6522ZM77.0196 32.0756C76.7091 32.2308 76.7091 32.2167 76.9631 32.0191C77.2595 31.7792 77.33 31.751 77.33 31.8639C77.33 31.8921 77.1889 31.9909 77.0196 32.0756ZM76.4128 32.3719C76.3563 32.4566 76.3563 32.5553 76.3987 32.5977C76.441 32.64 76.3987 32.7811 76.314 32.9081C76.1729 33.0916 76.1729 33.1057 76.3422 32.9646C76.441 32.8658 76.5398 32.6541 76.5539 32.4989C76.5821 32.1743 76.5398 32.1461 76.4128 32.3719ZM76.8643 32.64C76.7797 32.64 76.8361 32.5412 76.9913 32.4283C77.3441 32.1602 77.4147 32.1602 77.1889 32.4283C77.0901 32.5412 76.949 32.64 76.8643 32.64ZM87.7299 32.513C87.8287 32.6118 87.9416 32.6541 87.9839 32.6118C88.0262 32.5694 87.9557 32.4848 87.8146 32.4424C87.617 32.3578 87.6029 32.3719 87.7299 32.513ZM75.6367 33.3456C75.4673 33.2468 75.4815 33.1762 75.6931 32.9363C75.8483 32.767 75.9895 32.64 76.0318 32.64C76.0741 32.64 75.9895 32.767 75.8624 32.9081C75.7213 33.0633 75.679 33.2186 75.7496 33.2609C75.8342 33.3032 75.933 33.2609 75.9612 33.1762C76.0177 33.0492 76.0459 33.0351 76.0459 33.1621C76.06 33.402 75.8624 33.4867 75.6367 33.3456ZM75.0581 33.4443C74.8747 33.6701 74.8888 33.6842 75.1146 33.5008C75.2416 33.402 75.3544 33.2891 75.3544 33.2609C75.3544 33.148 75.2416 33.2186 75.0581 33.4443ZM73.4495 35.3493L73.9998 34.8413C74.3102 34.5591 74.6207 34.3333 74.6912 34.3333C74.7759 34.3333 74.8041 34.3474 74.7759 34.3757C74.7477 34.4039 74.4372 34.6297 74.0844 34.8837L73.4495 35.3493ZM12.2072 34.545C12.1367 34.5732 11.6992 34.7002 11.2336 34.8272C10.147 35.1236 10.274 35.2082 11.4311 34.9683C12.6447 34.7002 14.2816 34.7002 15.5374 34.9683C20.4058 35.9984 24.498 40.6833 27.8 49.0089C29.2111 52.5931 29.2676 52.452 27.9976 48.5856C25.8527 42.0944 22.4801 37.4378 18.4726 35.434C17.0191 34.7002 15.9326 34.4744 14.0417 34.4886C13.1103 34.4886 12.2919 34.5168 12.2072 34.545ZM73.0684 35.3352C73.0402 35.2082 73.1108 35.0389 73.2378 34.9401C73.3507 34.8554 73.4777 34.8131 73.52 34.8413C73.5482 34.8837 73.4918 34.9683 73.393 35.0248C73.2942 35.0953 73.2378 35.2082 73.2801 35.2929C73.3365 35.3634 73.2519 35.5328 73.0967 35.6739C72.8709 35.8714 72.7721 35.8997 72.6451 35.7727C72.5181 35.6457 72.5181 35.561 72.6592 35.4199C72.8003 35.2788 72.8144 35.2929 72.7298 35.5046C72.6592 35.688 72.7016 35.7303 72.8709 35.6598C73.012 35.6033 73.0826 35.4622 73.0684 35.3352ZM71.3045 36.4077C71.1634 36.5488 71.1211 36.6052 71.2199 36.5488C71.3045 36.4782 71.4457 36.4641 71.5162 36.5064C71.5868 36.5488 71.6432 36.4923 71.6432 36.3794C71.6432 36.1113 71.6291 36.1113 71.3045 36.4077ZM29.7191 37.3108C29.8461 37.1273 30.1566 36.9015 30.3964 36.7887C30.6363 36.6899 30.9609 36.6052 31.1161 36.5911C31.7229 36.5911 34.6862 37.5224 34.531 37.6777C34.4887 37.7059 33.896 37.6353 33.2187 37.5224C30.5799 37.0568 30.086 37.2402 29.9167 38.7219C29.832 39.5827 29.8179 39.6109 29.6627 39.2299C29.4228 38.6654 29.451 37.6918 29.7191 37.3108ZM70.5708 36.9157C70.4579 37.0568 70.472 37.1132 70.599 37.1132C70.7119 37.1132 70.7966 37.0285 70.7966 36.9157C70.7966 36.8169 70.7824 36.7322 70.7683 36.7322C70.7401 36.7322 70.6554 36.8169 70.5708 36.9157ZM70.2321 37.6636C70.1051 37.7906 69.837 37.5789 69.9217 37.4237C69.9781 37.3531 70.0346 37.2967 70.0769 37.2967C70.1192 37.2967 70.1051 37.3531 70.0628 37.4378C70.0204 37.5083 70.0487 37.5789 70.1474 37.5789C70.2462 37.5789 70.2886 37.6212 70.2321 37.6636ZM70.4156 37.4519C70.4156 37.5224 70.4861 37.5507 70.5567 37.5083C70.6413 37.466 70.6978 37.3954 70.6978 37.3531C70.6978 37.3249 70.6413 37.2967 70.5567 37.2967C70.4861 37.2967 70.4156 37.3672 70.4156 37.4519ZM69.3572 38.1433C69.3149 38.0587 69.3149 37.9317 69.3572 37.8611C69.4842 37.6495 69.5266 37.6918 69.4983 38.0022C69.4701 38.3268 69.1456 38.7501 69.1456 38.4538C69.1456 38.355 69.2161 38.2845 69.3008 38.2845C69.3713 38.2845 69.3996 38.2139 69.3572 38.1433ZM69.7523 37.9317C69.7523 38.0446 69.8088 38.101 69.8793 38.0587C69.9499 38.0163 69.964 37.9176 69.9217 37.847C69.7947 37.6636 69.7523 37.6918 69.7523 37.9317ZM67.7062 39.2017C67.932 39.2017 68.0731 39.1311 68.059 39.0323C68.0308 38.9336 68.1155 38.8912 68.2425 38.9477C68.4259 39.0182 68.4118 39.0606 68.1719 39.2158C67.8332 39.4557 67.3958 39.5262 67.3535 39.3428C67.3252 39.2581 67.4946 39.2017 67.7062 39.2017ZM54.9074 39.7802C54.4841 40.9373 52.8331 41.9674 50.9422 42.2355C50.3354 42.3343 48.4445 42.3767 46.4972 42.3625C43.5903 42.3343 42.8142 42.3625 41.0927 42.6307C38.9054 42.9693 36.9017 43.0258 36.3654 42.7859C35.9703 42.6024 35.7304 42.2214 35.5611 41.5159C35.5013 41.2766 35.4732 41.1641 35.4578 41.1658C35.4443 41.1673 35.4407 41.2587 35.4341 41.4311V41.4312C35.42 42.0098 35.7587 42.7435 36.1961 43.0258C36.7182 43.3644 38.8913 43.4491 40.9939 43.2092C42.0663 43.0822 43.7173 43.0258 45.5236 43.054C50.0673 43.1387 52.1699 42.7718 53.7221 41.6147C54.4136 41.1208 54.6252 40.8527 54.8933 40.2035C55.0627 39.7661 55.1897 39.371 55.1473 39.3428C55.1191 39.3004 55.0062 39.498 54.9074 39.7802ZM65.9 39.8508C65.9 39.7802 66.0129 39.6956 66.154 39.6673C66.281 39.6391 66.5773 39.6109 66.8172 39.5968L67.2264 39.5827L66.8454 39.7802C66.6338 39.8931 66.3798 39.9778 66.281 39.9496C66.1963 39.9354 65.9706 39.9919 65.7871 40.0907C65.2932 40.3729 63.1342 40.6833 61.8783 40.6551C61.2292 40.641 61.0176 40.6128 61.3844 40.5846C61.7372 40.5563 62.5557 40.4717 63.2189 40.387C63.8821 40.3023 64.6159 40.2459 64.8417 40.2459C65.1803 40.2459 65.2227 40.2177 65.0533 40.1048C64.884 39.9778 64.9122 39.9637 65.1521 40.0201C65.3356 40.0624 65.519 40.0342 65.5613 39.9637C65.6037 39.8931 65.7024 39.8649 65.773 39.9072C65.8436 39.9637 65.9 39.9354 65.9 39.8508ZM37.8612 40.3588C37.0569 40.514 36.5207 41.657 37.0428 42.0944C37.2262 42.2356 37.2544 42.2214 37.2544 41.9251C37.2544 41.7417 37.4238 41.4312 37.6213 41.2337C37.96 40.9091 38.087 40.895 39.5546 40.9091C40.4294 40.9091 41.3326 40.9656 41.5583 41.0079C42.5179 41.2337 41.4878 40.8386 40.373 40.5563C39.2441 40.2741 38.5668 40.2177 37.8612 40.3588ZM60.439 40.4999C60.3402 40.5281 60.1709 40.5281 60.0862 40.4999C59.9874 40.4576 60.058 40.4293 60.2556 40.4293C60.4531 40.4293 60.5237 40.4576 60.439 40.4999ZM39.738 51.2526C39.3006 52.0851 38.6938 53.7785 38.4398 54.865C38.0447 56.5583 38.0729 60.453 38.4962 62.1746C39.8509 67.6073 43.4492 72.4333 49.1783 76.455C49.5876 76.7372 49.5311 76.6667 48.9667 76.1587C47.4991 74.8746 44.8462 72.2217 43.9713 71.1633C42.1651 68.9902 41.0786 67.2404 40.0626 64.8416C39.0889 62.5556 38.7926 61.1444 38.7079 58.3222C38.6515 56.1632 38.6797 55.6693 38.9478 54.3711C39.1171 53.5668 39.4276 52.4379 39.6533 51.8735C40.0626 50.801 40.0908 50.547 39.738 51.2526ZM4.33322 64.9827C4.29089 65.0956 4.24855 65.0532 4.24855 64.898C4.23444 64.7428 4.27678 64.6581 4.31911 64.7146C4.36144 64.7569 4.37556 64.8839 4.33322 64.9827ZM4.38967 65.8858C4.38967 66.041 4.432 66.0833 4.47433 65.9704C4.51667 65.8717 4.50255 65.7447 4.46022 65.7023C4.41789 65.6459 4.37556 65.7306 4.38967 65.8858ZM4.61544 66.676C4.57311 66.7889 4.53078 66.7466 4.53078 66.5913C4.51666 66.4361 4.559 66.3514 4.60133 66.4079C4.64366 66.4502 4.65778 66.5772 4.61544 66.676ZM4.74244 67.4944C4.79889 67.8472 4.88356 68.2564 4.95411 68.4117C5.09522 68.7503 4.95411 67.7343 4.78478 67.2122C4.70011 66.9864 4.686 67.0711 4.74244 67.4944ZM5.92777 71.9394C5.56088 70.6977 5.22222 69.4559 5.16577 69.1878C5.05289 68.5104 5.13755 68.7503 6.30877 72.4333L7.26833 75.4672L7.25422 77.5133C7.21189 82.3111 5.49033 90.5097 2.61166 99.7383C1.83555 102.208 1.15822 104.169 1.14411 103.943C1.13 103.859 1.45455 102.589 1.83555 101.135C3.61355 94.5313 5.27866 87.5181 6.35111 82.0994C6.64744 80.6319 7.05666 77.471 7.05666 76.709C7.05666 75.8482 6.94377 75.3543 5.92777 71.9394ZM31.102 75.0439C31.2713 75.8482 32.4708 78.0778 33.2892 79.1079C34.3193 80.4061 35.8151 81.5914 37.3109 82.3111C38.9054 83.0731 39.8932 83.313 41.77 83.3694C42.659 83.3977 43.167 83.3836 42.8989 83.3553C40.4718 83.059 38.0023 82.17 36.2667 80.9988C35.42 80.4202 33.8254 78.8962 33.0917 77.9367C32.7671 77.5133 32.1603 76.582 31.7511 75.8906C31.2854 75.0862 31.0456 74.7758 31.102 75.0439ZM26.0784 78.4164C27.5319 77.7109 28.9571 76.455 29.4087 75.4954C29.5498 75.1991 29.6909 74.9874 29.7332 75.0298C29.7756 75.0721 29.6344 75.4531 29.4228 75.8764C27.8847 78.9244 24.1593 80.5331 18.6983 80.519C17.005 80.5049 13.6324 80.1944 13.4631 80.0251C13.449 79.9969 14.9024 79.9828 16.6946 79.9828C21.3512 79.9828 23.6231 79.6018 26.0784 78.4164ZM27.3202 84.7947C28.3362 86.8549 28.5197 87.7298 28.6184 90.9894L28.6202 91.0576C28.689 93.7281 28.6907 93.7918 28.8866 93.1061C29.2111 91.9631 29.2958 88.774 29.0136 87.6733C28.7031 86.4457 27.927 84.8934 27.2497 84.1314L26.6852 83.5106L27.3202 84.7947ZM29.5921 95.8719C29.1547 93.7976 30.0154 90.2698 31.6241 87.4475C31.9628 86.869 32.245 86.4315 32.2732 86.4598C32.3014 86.488 32.0333 87.3205 31.6664 88.3224C30.6928 91.0177 30.213 92.7674 29.9308 94.6583C29.7332 96.0412 29.6768 96.267 29.5921 95.8719Z" fill="white"/>
</svg>
